<?xml version="1.0" encoding="UTF-8"?>
<svg xmlns="http://www.w3.org/2000/svg" viewBox="0 0 524 476" width="524" height="476">
<path d="M353.75 305.75C353.29 303.42 354.46 300.83 354.75 298.52C355.22 294.73 355.11 290.54 354.64 286.75C354.33 284.14 352.84 281.83 352.58 279.25C352.17 275.17 352.6 270.85 352.61 266.75C352.62 257.42 352.62 248.08 352.63 238.75C352.67 212.08 352.63 185.42 352.61 158.75C352.6 146.42 352.58 134.08 352.58 121.75C352.58 116.57 353.9 109.24 351.78 104.42C349.05 98.2 343.18 97.97 337.25 97.98C328.08 98 318.92 98.01 309.75 98C277.75 97.99 245.75 98.02 213.75 98C204.25 97.99 194.75 98.02 185.25 98.01C180.91 98 175.42 97.1 171.27 98.52C163.73 101.11 164.09 108.59 164.09 115.25C164.08 130.08 164.01 144.92 164.08 159.75C164.29 202.58 164.1 245.42 164.1 288.25C164.1 301.75 164.09 315.25 164.11 328.75C164.12 334.94 165.32 342.67 163.75 348.62C158.1 346.96 155.28 339.58 155.03 334.25C154.35 319.99 155.03 305.53 155.02 291.25C155 240.08 155.06 188.92 155.06 137.75C155.06 130.92 155.04 124.08 155.04 117.25C155.05 105.79 154.19 92.12 168.27 88.53C173.84 87.1 180.05 87.82 185.75 87.83C195.58 87.85 205.42 87.8 215.25 87.85C245.91 88 276.59 87.93 307.25 87.84C316.42 87.82 325.58 87.88 334.75 87.83C342.2 87.79 349.26 87.4 355.33 92.44C364.94 100.41 361.69 125.01 361.65 136.75C361.53 177.42 361.49 218.08 361.62 258.75C361.65 269.12 363.41 284.88 360.24 294.46C359.1 297.92 356.88 303.73 353.75 305.75ZM208.67 121.38C209.8 122.38 210.93 123.38 212.06 124.38C212.67 127.6 215.71 129.98 216.25 134.94C216.5 137.22 215.04 140.67 215.93 142.5C215.3 145.57 213.34 147.8 211.18 149.93C199.09 161.78 177.98 150.31 181.36 133.69C181.95 130.79 182.75 128.19 184.55 125.81C186.51 123.22 188.49 121.36 191.5 120.04C193.44 120.89 197.48 119.3 199.81 119.24C202.99 119.17 205.7 121.01 208.67 121.38ZM196.55 125.61C193.43 128.32 192.89 131.33 195.05 134.92C195.68 135.53 196.3 136.14 196.92 136.75C195.7 137.18 194.47 137.6 193.25 138.03C193.21 138.23 193.18 138.43 193.14 138.63C190.7 140.98 188.58 143.1 190.07 146.75C196.1 146.75 202.12 146.75 208.15 146.75C210.42 139.62 202.2 137.54 197.08 137.56C197.14 137.37 197.19 137.19 197.25 137C197.92 137 198.58 137 199.25 137C199.33 136.8 199.42 136.59 199.5 136.39C200.1 136.24 200.7 136.1 201.3 135.96C203.01 136.65 204.35 134.15 204.79 132.57C205.96 128.43 200.18 121.28 196.55 125.61ZM324.93 133.69C325.1 133.75 325.28 133.81 325.45 133.88C325.64 134.67 325.83 135.46 326.02 136.25C324.7 138.35 321.99 137.81 319.75 137.77C314.08 137.67 308.42 137.78 302.75 137.67C285.94 137.35 269.07 137.7 252.25 137.65C245.05 137.63 236.43 139 229.46 137.25C229.13 136.67 228.8 136.08 228.47 135.5C228.6 135.31 228.73 135.11 228.86 134.92C236.02 132.97 244.74 134.14 252.25 134.12C268.42 134.07 284.58 134.14 300.75 134.14C306.22 134.14 320.56 135.42 324.93 133.69ZM417.75 174.53C419.4 175.56 419.32 176.6 419.75 178.36C424.06 178.36 428.38 178.36 432.69 178.36C432.69 181.33 432.69 184.29 432.69 187.25C430.38 187.73 428.3 188.83 426.01 189.25C423.7 189.67 421.3 189.29 418.98 189.66C418.98 191.36 418.98 193.05 418.98 194.75C424.15 196.91 423.45 199.71 424.25 204.65C427.51 206.81 431.6 207.56 434.82 209.94C442.72 215.8 451.81 230.06 448.56 240.25C443.83 241.46 438.6 240.63 433.75 240.64C423.42 240.66 413.08 240.59 402.75 240.64C399 240.66 388.76 241.79 385.9 240.25C382.96 229.4 392.34 215.06 401.04 209.29C404.02 207.31 407.53 206.59 410.51 204.75C412.1 198.88 409.65 198.3 415.87 194.75C416.77 190.51 416.79 184.06 416.07 179.75C415.85 178.45 415.11 177.6 414.96 176.25C415.69 174.87 416.21 174.68 417.75 174.53ZM197.82 215.24C222.24 214.21 223.39 250.4 199.75 251.52C176.42 252.62 174.44 216.23 197.82 215.24ZM198.37 223.71C193.75 224.4 195.01 232.06 199.73 231.47C204.47 230.87 203.34 222.96 198.37 223.71ZM192.75 226.92C189.2 226.86 188.61 230.36 191.75 231.84C194.1 230.95 194.64 228.66 192.75 226.92ZM206.25 232.12C209.87 230.01 208.23 225.35 204.25 227.7C203.42 230.01 204.23 231.07 206.25 232.12ZM253 230.15C256 230.14 259 230.13 262 230.12C281.33 230.12 300.67 230.12 320 230.13C322.3 230.21 327.59 229.63 326.59 233.48C322.47 236.05 310.96 234.73 305.75 234.7C288.71 234.59 271.66 234.67 254.62 234.75C250.47 234.77 238.01 233.44 235 235.3C232.88 235.19 228.38 235.93 228.38 232.75C228.38 231.6 229.09 231 229.96 230.49C237.64 230.37 245.32 230.26 253 230.15ZM192.97 235.44C192.69 237.59 192.01 239.18 193.05 241.25C197.1 243.56 204.34 243.21 206.21 238.75C207.51 238.75 208.8 238.75 210.1 238.75C211.35 234.86 206.61 230.14 203.75 234.25C199.56 231.66 196.66 233.05 192.97 235.44C193.06 234.67 193.16 233.9 193.25 233.13C189.79 232.04 186.56 235.02 187.75 238.55C189.26 239.29 190.33 239.2 191.75 238.28C192.16 237.34 192.56 236.39 192.97 235.44ZM378.81 244.74C399.62 244.47 420.44 244.78 441.25 244.76C444.71 244.75 456.57 243.64 458.81 245.44C460.4 246.72 460.04 249.97 459.88 251.75C459.43 256.6 444.79 254.78 440.75 254.8C427.95 254.89 415.05 254.16 402.25 254.65C397.4 254.84 392.6 254.5 387.75 254.61C384.46 254.69 380.75 255.41 377.48 254.74C373.4 253.91 373.17 244.82 378.81 244.74ZM223.36 255.24C227.87 255.06 232.57 255.62 236.67 257.58C265.9 271.52 258.77 314.97 226.25 316.37C221.94 316.56 217.4 315.99 213.41 314.32C183.56 301.78 190.63 256.51 223.36 255.24ZM392.32 258.89C392.32 268.63 392.32 278.36 392.32 288.1C388.89 288.1 385.46 288.1 382.03 288.1C382.03 278.36 382.03 268.63 382.03 258.89C385.46 258.89 388.89 258.89 392.32 258.89ZM401.99 258.9C405.37 258.9 408.75 258.9 412.13 258.9C412.13 268.64 412.13 278.38 412.13 288.11C408.75 288.11 405.37 288.11 401.99 288.11C401.99 278.38 401.99 268.64 401.99 258.9ZM432.29 258.91C432.29 268.63 432.29 278.36 432.29 288.08C428.9 288.08 425.5 288.08 422.11 288.08C422.11 278.36 422.11 268.63 422.11 258.91C425.5 258.91 428.9 258.91 432.29 258.91ZM452.33 258.88C452.33 268.62 452.33 278.36 452.33 288.1C448.95 288.1 445.57 288.1 442.19 288.1C442.19 278.36 442.19 268.62 442.19 258.88C445.57 258.88 448.95 258.88 452.33 258.88ZM52.25 279.93C55.89 282.11 63.21 293.4 66.4 297.36C74.47 307.37 83.9 316.22 93.38 324.85C125.14 353.78 174.47 375.36 216.75 381.07C232.46 383.19 248.76 381.62 264.04 377.76C273.71 375.32 282.95 371.46 292.74 369.41C301.9 367.49 311.38 368.9 320.61 367.78C325.3 367.21 330.04 366.87 334.74 366.35C342.12 365.52 353.54 363.11 356.73 372.5C359.86 381.69 352.6 387.63 345.41 391.2C334.98 396.38 322.58 397.61 311.61 401.32C306.86 402.93 301.15 404.89 297.8 408.75C300.16 410.12 304.29 409.12 306.95 408.74C314.49 407.66 322.09 406.37 329.39 404.21C335.88 402.29 342.33 400.43 348.61 397.81C373.1 387.62 391.79 368.27 411.03 350.78C420.13 342.51 435 323.24 449.32 328.41C454.06 330.12 455.86 335.37 454.75 340.08C452.85 348.09 447.36 356.71 442.71 363.46C421.9 393.69 397.61 416.1 366.14 434.88C356.01 440.93 344.6 445.52 333.41 449.2C268.79 470.44 203.06 458.9 147.91 419.84C126.81 404.9 107.34 387.1 92.24 366.02C78.33 346.61 66.34 325.96 58.41 303.32C56.44 297.7 50.84 285.5 52.25 279.93ZM460.23 298.25C468.84 301.46 464.99 309.44 463.01 316.27C462.3 318.74 461.57 322.72 459.75 324.48C457.46 323.27 455.59 321.14 453.08 320.21C444.37 317.02 437.28 320.67 429.25 323.32C427.79 322.54 426.91 321.14 425.67 320.06C422.15 317.02 417.82 315.48 413.25 314.97C396.26 313.1 383.45 327.58 372.23 337.99C366.69 343.13 360.33 347.84 353.72 351.49C339.16 359.53 321.36 358.21 305.25 358.15C299.19 358.12 291.35 359.4 285.54 357.75C284.36 355.14 282.13 350.42 282.75 347.62C294.39 346.1 307 347.38 318.75 347.34C324.54 347.32 330.93 347.99 336.18 344.94C344.9 339.87 356.66 322.49 362.02 313.77C364.67 309.46 366.47 303.44 370.2 299.95C371.48 298.76 373.31 298.72 374.7 297.75C374.88 296.13 374.66 294.38 375.85 293.09C377.85 290.91 390.36 292.02 393.75 291.99C410.25 291.84 426.75 291.93 443.25 291.95C446.39 291.96 456.69 291.01 458.73 293.01C460.13 294.38 459.84 296.5 460.23 298.25ZM278.75 365.75C273.15 369.3 266.57 371.22 260.27 373.03C237.96 379.44 219.54 379.48 197.22 373.08C190.74 371.23 184.81 368.92 178.7 366.07C176.19 364.89 172.97 364.01 171.26 361.75C177.76 327.7 218.54 315.32 248.04 326.71C259.71 331.21 268.61 339.42 274.31 350.44C276.54 354.74 279.66 360.82 278.75 365.75ZM365.25 379.25C363.96 376.91 364.85 372.74 363.86 369.86C362.77 366.72 359.8 364.7 358.85 361.75C362.92 357.65 368.17 354.61 372.53 350.78C381.37 343.01 389.37 332.67 399.89 327.15C405.71 324.1 415.46 321.84 419.69 328.56C420.39 329.68 420.82 331.17 420.18 332.42C419.07 334.59 411.43 340.78 409.2 342.95C400.46 351.46 391.65 359.75 382.05 367.3C376.84 371.41 371.39 376.6 365.25 379.25Z" fill="#07295d" fill-rule="evenodd" stroke="#07295d" stroke-width="0.25" stroke-linejoin="round"/>
<path d="M276.5 19.61C275 19.66 273.5 19.7 272 19.75C274.84 22.11 286.33 21.65 287.42 23.75C285.86 24.15 284.31 24.54 282.75 24.94C282.22 25.54 281.7 26.15 281.17 26.75C281.37 27.6 281.56 28.46 281.75 29.31C280.45 30.54 279.99 30.68 278.25 30.96C278.5 33.35 279.49 34.23 278.58 36.75C279.74 37.92 280.9 39.08 282.05 40.25C279.48 40.25 277.21 38.94 274.73 38.65C273.3 38.48 272.15 39.12 270.75 39.17C267.13 39.29 263.42 38.53 259.75 38.62C260.33 38.92 260.92 39.22 261.5 39.52C244.32 40.29 227.38 41.09 210.76 45.99C159.49 61.12 118.5 98.03 95.8 146.08C89.17 160.11 83.86 174.14 80.68 189.34C79.59 194.6 78.16 200.64 79.25 206.02C81.31 203.4 85.18 195.55 86.05 192.24C86.88 189.08 86.44 185.61 87.21 182.4C90.06 170.68 98.32 160.33 109.66 155.89C113.15 154.52 118.01 152.52 121.7 153.25C122.21 156.16 121.23 159.45 120.48 162.27C117.67 172.83 112.51 182.7 103.01 188.75C98.97 191.31 93.17 192.34 89.58 195.33C87.13 197.36 85.99 201.09 84.59 203.83C77.72 217.29 78.54 228.77 81.68 243.12C82.52 246.94 82.45 252.93 84.75 256.05C85.85 252.15 86.85 247.29 87.01 243.25C87.18 239.25 86.47 235.29 87.12 231.27C88.96 219.94 96.18 209.74 106.68 204.93C110.33 203.26 114.15 201.13 118.25 201.78C120.83 211.77 113.67 228.18 106.13 234.88C103.72 237.03 100.95 239.26 98.21 240.97C96.14 242.27 93.04 242.76 91.39 244.63C89.71 246.53 89.26 250.81 88.92 253.25C85.81 275.89 101.13 300.13 113.97 317.77C117.4 322.48 122.7 327 125.12 332.25C120.5 331.46 115.71 325.46 112.38 322.37C103.07 313.75 95.89 303.31 90.29 291.97C87.46 286.25 85.83 278.94 81.72 274.04C79.3 271.16 75.36 266.32 71.86 264.87C70.09 264.13 67.99 264.15 66.15 263.66C59.71 261.96 53.95 259.34 49.21 254.54C43.62 248.88 35.8 235.41 36.85 227.25C39.86 225.49 47.45 228.3 50.51 229.73C58.32 233.39 65.72 238.58 69.68 246.57C72.81 252.89 73.02 261.97 79.75 265.51C80.31 261.66 77.98 257.42 77.18 253.67C76.13 248.73 76.26 243.28 74.76 238.46C73.14 233.28 69.01 226.89 65.24 223.02C63.22 220.94 56.28 218.64 52.93 215.81C44.26 208.48 39.79 196.47 40.15 185.25C40.24 182.23 40.16 178.34 41.71 175.75C45.18 175.99 48.72 178.81 51.38 180.85C60.1 187.52 66.01 195.78 68.06 206.75C69.53 214.59 66.49 220.44 73.25 226.59C74.94 223.58 73.8 217.96 73.77 214.5C73.75 209.93 75.5 204.82 74.82 200.34C74.33 197.13 71.22 192.1 70.35 188.29C67.24 174.67 69.09 160.59 73.19 147.39C96.03 73.91 166.31 21.84 242.75 18.39C253.83 17.89 265.53 17.68 276.5 19.61Z" fill="#eb7515" fill-rule="evenodd" stroke="#eb7515" stroke-width="0.25" stroke-linejoin="round"/>
<path d="M332.75 37.5C334.17 38.42 335.58 39.33 337 40.25C335.51 41.41 333.1 41.05 331.5 40.25C331.92 39.33 332.33 38.42 332.75 37.5ZM344.51 43.5C345.51 44.42 346.5 45.33 347.5 46.25C346.92 46.5 346.33 46.75 345.75 47C345.34 46.58 344.92 46.17 344.51 45.75C344.51 45 344.51 44.25 344.51 43.5ZM346.75 49C348.39 51.19 343.97 53.12 342.25 52.5C341.68 49.47 344.49 49.49 346.75 49ZM365.6 56.95C372.69 61.05 378.67 68.13 384.35 73.91C403.95 93.82 419.96 119.25 427.3 146.39C429.36 154 434.57 168.85 433.25 176.27C431.39 176.26 429.54 176.26 427.68 176.25C425.26 170.16 424.24 163.49 421.84 157.37C415.8 141.98 408.61 126.86 398.86 113.38C390.89 102.37 381.5 92.47 371.56 83.2C367.32 79.25 361.86 76.35 357.93 72.17C357.21 69.93 352.94 67.63 350.87 66.25C350.22 64.25 349.56 62.25 348.91 60.25C350.02 59 351.14 57.75 352.25 56.5C353.18 56.25 354.12 56 355.05 55.75C354.2 55.42 353.35 55.08 352.5 54.75C354.38 53.38 353.59 51.85 355.25 50.75C359.13 52.2 361.63 56.14 365.6 56.95ZM343.25 57C344.67 57.75 346.08 58.5 347.5 59.25C346.41 60.59 345.15 60.44 343.5 60.75C343.58 60.17 343.67 59.58 343.75 59C342.92 59.5 342.08 60 341.25 60.5C340 59.75 338.75 59 337.5 58.25C339.32 57.89 340.32 57.39 341.75 58.5C342.25 58 342.75 57.5 343.25 57ZM208.67 121.38C205.7 121.01 202.99 119.17 199.81 119.24C197.48 119.3 193.44 120.89 191.5 120.04C195.98 117.14 204.85 117.56 208.67 121.38ZM201.3 135.96C206.76 130.6 204.07 125.21 196.55 125.61C200.18 121.28 205.96 128.43 204.79 132.57C204.35 134.15 203.01 136.65 201.3 135.96ZM212.06 124.38C217.22 127.36 218.45 137.61 215.93 142.5C215.04 140.67 216.5 137.22 216.25 134.94C215.71 129.98 212.67 127.6 212.06 124.38ZM324.93 133.69C320.56 135.42 306.22 134.14 300.75 134.14C284.58 134.14 268.42 134.07 252.25 134.12C244.74 134.14 236.02 132.97 228.86 134.92C229.97 132.81 232.56 133.23 234.75 133.2C239.91 133.15 245.08 133.23 250.25 133.22C268.58 133.2 286.92 133.23 305.25 133.23C308.63 133.24 322.88 132.22 324.93 133.69ZM325.45 133.88C325.98 134.5 326.51 135.13 327.04 135.75C326.81 136.7 326.61 137.84 325.61 138.32C322.39 139.88 309.47 138.79 305.25 138.79C286.43 138.79 267.58 138.5 248.75 138.65C244.68 138.68 231.41 140.1 228.75 137.53C228.66 136.86 228.56 136.18 228.47 135.5C228.8 136.08 229.13 136.67 229.46 137.25C236.43 139 245.05 137.63 252.25 137.65C269.07 137.7 285.94 137.35 302.75 137.67C308.42 137.78 314.08 137.67 319.75 137.77C321.99 137.81 324.7 138.35 326.02 136.25C325.83 135.46 325.64 134.67 325.45 133.88ZM195.05 134.92C196.53 135.41 198.02 135.9 199.5 136.39C199.42 136.59 199.33 136.8 199.25 137C198.58 137 197.92 137 197.25 137C197.19 137.19 197.14 137.37 197.08 137.56C195.77 137.91 194.46 138.27 193.14 138.63C193.18 138.43 193.21 138.23 193.25 138.03C194.47 137.6 195.7 137.18 196.92 136.75C196.3 136.14 195.68 135.53 195.05 134.92ZM198.87 166.71C222.11 166.43 223.44 202.29 199.75 203.54C175.66 204.81 174.6 167 198.87 166.71ZM199 196.25C205.39 191.99 212.27 174.07 199.25 174.03C194.03 174.01 189.69 179.04 190.91 184.24C191.59 187.11 194.06 190.15 195.71 192.55C196.65 193.92 197.37 195.66 199 196.25ZM198.34 178.21C202.85 177.66 204.81 184.55 200.15 185.83C194.89 187.27 193.31 178.82 198.34 178.21ZM326.75 182.9C327.07 184.29 327.25 186.12 325.62 186.84C322.69 188.14 310.62 187.19 306.75 187.2C286.92 187.23 267.08 187.23 247.25 187.21C243.04 187.2 229.86 188.72 228.18 184.75C228.3 183.54 228.55 182.55 229.75 181.95C232.35 180.66 246.01 181.63 249.75 181.62C268.92 181.54 288.08 181.64 307.25 181.61C311.06 181.61 324.55 180.47 326.75 182.9ZM253 230.15C245.32 230.26 237.64 230.37 229.96 230.49C237.64 230.37 245.32 230.26 253 230.15ZM326.59 233.48C326.31 233.96 326.03 234.43 325.75 234.9C295.5 235.04 265.25 235.17 235 235.3C238.01 233.44 250.47 234.77 254.62 234.75C271.66 234.67 288.71 234.59 305.75 234.7C310.96 234.73 322.47 236.05 326.59 233.48ZM311.82 264.7C316.14 264.12 320.81 264.45 324.98 265.75C351.79 274.15 353.97 311.73 328.39 323.17C325.9 324.28 323.52 325.51 320.75 325.85C316.1 326.43 310.97 326.3 306.52 324.73C276.6 314.18 279.87 268.94 311.82 264.7ZM311.25 300C308.11 298.6 300.36 286.75 297.21 294.41C295.9 297.61 304.7 304.73 307.07 307.18C308.17 308.31 309.55 309.99 311.25 310.01C313.81 310.03 315.75 306.75 317.36 305.13C322.26 300.2 327.18 295.24 331.93 290.17C333.76 288.21 337 285.64 334.88 282.87C332.23 279.4 329.31 282.17 327.11 284.36C322.72 288.72 316.56 297.39 311.25 300Z" fill="#2b984f" fill-rule="evenodd" stroke="#2b984f" stroke-width="0.25" stroke-linejoin="round"/>
<path d="M276.5 19.61C298.78 20.82 328.15 31.87 346.99 43.74C351.27 46.44 363.23 53.11 365.6 56.95C361.63 56.14 359.13 52.2 355.25 50.75C353.59 51.85 354.38 53.38 352.5 54.75C353.35 55.08 354.2 55.42 355.05 55.75C354.12 56 353.18 56.25 352.25 56.5C351.14 57.75 350.02 59 348.91 60.25C349.56 62.25 350.22 64.25 350.87 66.25C352.94 67.63 357.21 69.93 357.93 72.17C353.14 70.64 347.99 65.89 343.62 63.15C335.24 57.88 325.45 53.44 316.15 50.16C306.36 46.7 295.98 43.8 285.72 42.18C279.38 41.18 272.91 40.33 266.52 39.82C264.83 39.69 263.13 39.97 261.5 39.52C260.92 39.22 260.33 38.92 259.75 38.62C263.42 38.53 267.13 39.29 270.75 39.17C272.15 39.12 273.3 38.48 274.73 38.65C277.21 38.94 279.48 40.25 282.05 40.25C280.9 39.08 279.74 37.92 278.58 36.75C279.49 34.23 278.5 33.35 278.25 30.96C279.99 30.68 280.45 30.54 281.75 29.31C281.56 28.46 281.37 27.6 281.17 26.75C281.7 26.15 282.22 25.54 282.75 24.94C284.31 24.54 285.86 24.15 287.42 23.75C286.33 21.65 274.84 22.11 272 19.75C273.5 19.7 275 19.66 276.5 19.61ZM332.75 37.5C332.33 38.42 331.92 39.33 331.5 40.25C333.1 41.05 335.51 41.41 337 40.25C335.58 39.33 334.17 38.42 332.75 37.5ZM344.51 43.5C344.51 44.25 344.51 45 344.51 45.75C344.92 46.17 345.34 46.58 345.75 47C346.33 46.75 346.92 46.5 347.5 46.25C346.5 45.33 345.51 44.42 344.51 43.5ZM346.75 49C344.49 49.49 341.68 49.47 342.25 52.5C343.97 53.12 348.39 51.19 346.75 49ZM343.25 57C342.75 57.5 342.25 58 341.75 58.5C340.32 57.39 339.32 57.89 337.5 58.25C338.75 59 340 59.75 341.25 60.5C342.08 60 342.92 59.5 343.75 59C343.67 59.58 343.58 60.17 343.5 60.75C345.15 60.44 346.41 60.59 347.5 59.25C346.08 58.5 344.67 57.75 343.25 57ZM262 230.12C281.33 230.12 300.67 230.12 320 230.13C300.67 230.12 281.33 230.12 262 230.12Z" fill="#b59b40" fill-rule="evenodd" stroke="#b59b40" stroke-width="0.25" stroke-linejoin="round"/>
</svg>